<mxfile host="app.diagrams.net" agent="Mozilla/5.0 (Windows NT 10.0; Win64; x64; rv:143.0) Gecko/20100101 Firefox/143.0" version="28.2.5">
  <diagram name="Wazuh Architecture" id="fU7EJjosR3vMCQV5aWwp">
    <mxGraphModel dx="1362" dy="716" grid="1" gridSize="10" guides="1" tooltips="1" connect="1" arrows="1" fold="1" page="1" pageScale="1" pageWidth="850" pageHeight="1100" math="0" shadow="0">
      <root>
        <mxCell id="0" />
        <mxCell id="1" parent="0" />
        <mxCell id="e0WXKjzWz-qE_TjRGXws-1" value="Atomic Red Team&#xa;(محاكي الهجمات)" style="rounded=1;whiteSpace=wrap;html=1;fillColor=#f8cecc;strokeColor=#b85450;fontSize=14;fontStyle=1" vertex="1" parent="1">
          <mxGeometry x="280" y="40" width="200" height="60" as="geometry" />
        </mxCell>
        <mxCell id="e0WXKjzWz-qE_TjRGXws-2" value="" style="rounded=1;whiteSpace=wrap;html=1;fillColor=#e1d5e7;strokeColor=#9673a6;dashed=1;dashPattern=8 8;" vertex="1" parent="1">
          <mxGeometry x="200" y="150" width="360" height="100" as="geometry" />
        </mxCell>
        <mxCell id="e0WXKjzWz-qE_TjRGXws-3" value="Ubuntu&#xa;Endpoint" style="rounded=1;whiteSpace=wrap;html=1;fillColor=#dae8fc;strokeColor=#6c8ebf;fontSize=12;" vertex="1" parent="1">
          <mxGeometry x="230" y="170" width="120" height="60" as="geometry" />
        </mxCell>
        <mxCell id="e0WXKjzWz-qE_TjRGXws-4" value="Windows&#xa;Endpoint" style="rounded=1;whiteSpace=wrap;html=1;fillColor=#dae8fc;strokeColor=#6c8ebf;fontSize=12;" vertex="1" parent="1">
          <mxGeometry x="410" y="170" width="120" height="60" as="geometry" />
        </mxCell>
        <mxCell id="e0WXKjzWz-qE_TjRGXws-5" value="Wazuh Agents" style="rounded=1;whiteSpace=wrap;html=1;fillColor=#d5e8d4;strokeColor=#82b366;fontSize=14;fontStyle=1" vertex="1" parent="1">
          <mxGeometry x="280" y="300" width="200" height="60" as="geometry" />
        </mxCell>
        <mxCell id="e0WXKjzWz-qE_TjRGXws-6" value="Wazuh Manager / Server" style="rounded=1;whiteSpace=wrap;html=1;fillColor=#fff2cc;strokeColor=#d6b656;fontSize=14;fontStyle=1" vertex="1" parent="1">
          <mxGeometry x="280" y="410" width="200" height="60" as="geometry" />
        </mxCell>
        <mxCell id="e0WXKjzWz-qE_TjRGXws-7" value="Rules / Detection /&#xa;Correlation Engine" style="rounded=1;whiteSpace=wrap;html=1;fillColor=#ffe6cc;strokeColor=#d79b00;fontSize=12;fontStyle=1" vertex="1" parent="1">
          <mxGeometry x="100" y="540" width="180" height="60" as="geometry" />
        </mxCell>
        <mxCell id="e0WXKjzWz-qE_TjRGXws-8" value="Response Module" style="rounded=1;whiteSpace=wrap;html=1;fillColor=#ffe6cc;strokeColor=#d79b00;fontSize=12;fontStyle=1" vertex="1" parent="1">
          <mxGeometry x="480" y="540" width="180" height="60" as="geometry" />
        </mxCell>
        <mxCell id="e0WXKjzWz-qE_TjRGXws-9" value="Alerts / Dashboard" style="rounded=1;whiteSpace=wrap;html=1;fillColor=#f5f5f5;strokeColor=#666666;fontSize=12;fontStyle=1" vertex="1" parent="1">
          <mxGeometry x="100" y="660" width="180" height="60" as="geometry" />
        </mxCell>
        <mxCell id="e0WXKjzWz-qE_TjRGXws-10" value="VirusTotal API&#xa;Integration" style="rounded=1;whiteSpace=wrap;html=1;fillColor=#e1d5e7;strokeColor=#9673a6;fontSize=12;fontStyle=1" vertex="1" parent="1">
          <mxGeometry x="480" y="660" width="180" height="60" as="geometry" />
        </mxCell>
        <mxCell id="e0WXKjzWz-qE_TjRGXws-11" value="Quarantine / Delete / Notify" style="rounded=1;whiteSpace=wrap;html=1;fillColor=#f8cecc;strokeColor=#b85450;fontSize=12;fontStyle=1" vertex="1" parent="1">
          <mxGeometry x="480" y="780" width="180" height="60" as="geometry" />
        </mxCell>
        <mxCell id="e0WXKjzWz-qE_TjRGXws-12" style="edgeStyle=orthogonalEdgeStyle;rounded=0;orthogonalLoop=1;jettySize=auto;html=1;strokeWidth=2;endArrow=block;endFill=1;" edge="1" parent="1" source="e0WXKjzWz-qE_TjRGXws-1" target="e0WXKjzWz-qE_TjRGXws-2">
          <mxGeometry relative="1" as="geometry" />
        </mxCell>
        <mxCell id="e0WXKjzWz-qE_TjRGXws-13" style="edgeStyle=orthogonalEdgeStyle;rounded=0;orthogonalLoop=1;jettySize=auto;html=1;strokeWidth=2;endArrow=block;endFill=1;" edge="1" parent="1" source="e0WXKjzWz-qE_TjRGXws-2" target="e0WXKjzWz-qE_TjRGXws-5">
          <mxGeometry relative="1" as="geometry" />
        </mxCell>
        <mxCell id="e0WXKjzWz-qE_TjRGXws-14" style="edgeStyle=orthogonalEdgeStyle;rounded=0;orthogonalLoop=1;jettySize=auto;html=1;strokeWidth=2;endArrow=block;endFill=1;" edge="1" parent="1" source="e0WXKjzWz-qE_TjRGXws-5" target="e0WXKjzWz-qE_TjRGXws-6">
          <mxGeometry relative="1" as="geometry" />
        </mxCell>
        <mxCell id="e0WXKjzWz-qE_TjRGXws-15" style="edgeStyle=orthogonalEdgeStyle;rounded=0;orthogonalLoop=1;jettySize=auto;html=1;strokeWidth=2;endArrow=block;endFill=1;" edge="1" parent="1" source="e0WXKjzWz-qE_TjRGXws-6" target="e0WXKjzWz-qE_TjRGXws-7">
          <mxGeometry relative="1" as="geometry" />
        </mxCell>
        <mxCell id="e0WXKjzWz-qE_TjRGXws-16" style="edgeStyle=orthogonalEdgeStyle;rounded=0;orthogonalLoop=1;jettySize=auto;html=1;strokeWidth=2;endArrow=block;endFill=1;" edge="1" parent="1" source="e0WXKjzWz-qE_TjRGXws-6" target="e0WXKjzWz-qE_TjRGXws-8">
          <mxGeometry relative="1" as="geometry" />
        </mxCell>
        <mxCell id="e0WXKjzWz-qE_TjRGXws-17" style="edgeStyle=orthogonalEdgeStyle;rounded=0;orthogonalLoop=1;jettySize=auto;html=1;strokeWidth=2;endArrow=block;endFill=1;" edge="1" parent="1" source="e0WXKjzWz-qE_TjRGXws-7" target="e0WXKjzWz-qE_TjRGXws-9">
          <mxGeometry relative="1" as="geometry" />
        </mxCell>
        <mxCell id="e0WXKjzWz-qE_TjRGXws-18" style="edgeStyle=orthogonalEdgeStyle;rounded=0;orthogonalLoop=1;jettySize=auto;html=1;strokeWidth=2;endArrow=block;endFill=1;" edge="1" parent="1" source="e0WXKjzWz-qE_TjRGXws-8" target="e0WXKjzWz-qE_TjRGXws-10">
          <mxGeometry relative="1" as="geometry" />
        </mxCell>
        <mxCell id="e0WXKjzWz-qE_TjRGXws-19" style="edgeStyle=orthogonalEdgeStyle;rounded=0;orthogonalLoop=1;jettySize=auto;html=1;strokeWidth=2;endArrow=block;endFill=1;" edge="1" parent="1" source="e0WXKjzWz-qE_TjRGXws-10" target="e0WXKjzWz-qE_TjRGXws-11">
          <mxGeometry relative="1" as="geometry" />
        </mxCell>
      </root>
    </mxGraphModel>
  </diagram>
</mxfile>
